<?xml version="1.0" encoding="UTF-8" standalone="no"?>
<!DOCTYPE svg PUBLIC "-//W3C//DTD SVG 1.1//EN"
 "http://www.w3.org/Graphics/SVG/1.1/DTD/svg11.dtd">
<!-- Generated by graphviz version 2.43.0 (0)
 -->
<!-- Title: %3 Pages: 1 -->
<svg width="268pt" height="287pt"
 viewBox="0.00 0.00 268.16 286.95" xmlns="http://www.w3.org/2000/svg" xmlns:xlink="http://www.w3.org/1999/xlink">
<g id="graph0" class="graph" transform="scale(1 1) rotate(0) translate(4 282.95)">
<title>%3</title>
<polygon fill="white" stroke="transparent" points="-4,4 -4,-282.95 264.16,-282.95 264.16,4 -4,4"/>
<!-- A -->
<g id="node1" class="node">
<title>A</title>
<polygon fill="aqua" stroke="black" points="102.67,-108.75 63.37,-108.75 51.22,-146.13 39.08,-108.75 -0.22,-108.75 31.57,-85.65 19.43,-48.27 51.22,-71.38 83.02,-48.27 70.87,-85.65 102.67,-108.75"/>
<text text-anchor="middle" x="51.22" y="-93.5" font-family="Times,serif" font-size="14.00">A</text>
</g>
<!-- B -->
<g id="node2" class="node">
<title>B</title>
<polygon fill="aqua" stroke="black" points="178.16,-110.63 138.86,-110.63 126.72,-148.01 114.57,-110.63 75.27,-110.63 107.07,-87.52 94.92,-50.15 126.72,-73.25 158.51,-50.15 146.37,-87.52 178.16,-110.63"/>
<text text-anchor="middle" x="126.72" y="-95.38" font-family="Times,serif" font-size="14.00">B</text>
</g>
<!-- A&#45;&#45;B -->
<g id="edge1" class="edge">
<title>A&#45;&#45;B</title>
<path fill="none" stroke="red" d="M88.09,-98.12C89.43,-98.15 90.78,-98.18 92.13,-98.22"/>
<text text-anchor="middle" x="83.61" y="-82.17" font-family="Times,serif" font-size="20.00">1</text>
</g>
<!-- C -->
<g id="node6" class="node">
<title>C</title>
<polygon fill="aqua" stroke="black" points="134.35,-175.26 95.05,-175.26 82.9,-212.64 70.76,-175.26 31.46,-175.26 63.25,-152.16 51.11,-114.78 82.9,-137.88 114.7,-114.78 102.55,-152.16 134.35,-175.26"/>
<text text-anchor="middle" x="82.9" y="-160.01" font-family="Times,serif" font-size="14.00">C</text>
</g>
<!-- B&#45;&#45;C -->
<g id="edge7" class="edge">
<title>B&#45;&#45;C</title>
<path fill="none" stroke="red" d="M115.89,-115.05C115.08,-116.25 114.24,-117.49 113.38,-118.75"/>
<text text-anchor="middle" x="121.13" y="-100.9" font-family="Times,serif" font-size="20.00">2</text>
</g>
<!-- H -->
<g id="node8" class="node">
<title>H</title>
<polygon fill="aqua" stroke="black" points="234.26,-60.27 194.95,-60.27 182.81,-97.65 170.67,-60.27 131.37,-60.27 163.16,-37.16 151.02,0.22 182.81,-22.89 214.61,0.22 202.46,-37.16 234.26,-60.27"/>
<text text-anchor="middle" x="182.81" y="-45.01" font-family="Times,serif" font-size="14.00">H</text>
</g>
<!-- B&#45;&#45;H -->
<g id="edge6" class="edge">
<title>B&#45;&#45;H</title>
<path fill="none" stroke="red" d="M149.21,-78.88C156.28,-72.53 163.84,-65.74 170,-60.22"/>
<text text-anchor="middle" x="153.1" y="-53.55" font-family="Times,serif" font-size="20.00">2</text>
</g>
<!-- F -->
<g id="node3" class="node">
<title>F</title>
<polygon fill="aqua" stroke="black" points="260.39,-212.95 221.09,-212.95 208.94,-250.33 196.8,-212.95 157.5,-212.95 189.29,-189.85 177.15,-152.47 208.94,-175.57 240.74,-152.47 228.59,-189.85 260.39,-212.95"/>
<text text-anchor="middle" x="208.94" y="-197.7" font-family="Times,serif" font-size="14.00">F</text>
</g>
<!-- E -->
<g id="node4" class="node">
<title>E</title>
<polygon fill="aqua" stroke="black" points="181.38,-241.79 142.08,-241.79 129.94,-279.17 117.8,-241.79 78.5,-241.79 110.29,-218.69 98.15,-181.31 129.94,-204.41 161.73,-181.31 149.59,-218.69 181.38,-241.79"/>
<text text-anchor="middle" x="129.94" y="-226.54" font-family="Times,serif" font-size="14.00">E</text>
</g>
<!-- F&#45;&#45;E -->
<g id="edge2" class="edge">
<title>F&#45;&#45;E</title>
<path fill="none" stroke="red" d="M177.26,-212.97C169.37,-215.85 161.03,-218.89 153.6,-221.6"/>
<text text-anchor="middle" x="158.93" y="-223.28" font-family="Times,serif" font-size="20.00">1</text>
</g>
<!-- G -->
<g id="node7" class="node">
<title>G</title>
<polygon fill="aqua" stroke="black" points="253.51,-131.54 214.21,-131.54 202.06,-168.91 189.92,-131.54 150.62,-131.54 182.41,-108.43 170.27,-71.05 202.06,-94.16 233.86,-71.05 221.71,-108.43 253.51,-131.54"/>
<text text-anchor="middle" x="202.06" y="-116.28" font-family="Times,serif" font-size="14.00">G</text>
</g>
<!-- F&#45;&#45;G -->
<g id="edge12" class="edge">
<title>F&#45;&#45;G</title>
<path fill="none" stroke="red" d="M206.61,-173.84C206.21,-169.04 205.78,-163.97 205.35,-158.93"/>
<text text-anchor="middle" x="212.48" y="-150.39" font-family="Times,serif" font-size="20.00">6</text>
</g>
<!-- D -->
<g id="node5" class="node">
<title>D</title>
<polygon fill="aqua" stroke="black" points="203.57,-179.54 164.27,-179.54 152.12,-216.92 139.98,-179.54 100.68,-179.54 132.47,-156.44 120.33,-119.06 152.12,-142.16 183.92,-119.06 171.77,-156.44 203.57,-179.54"/>
<text text-anchor="middle" x="152.12" y="-164.29" font-family="Times,serif" font-size="14.00">D</text>
</g>
<!-- E&#45;&#45;D -->
<g id="edge3" class="edge">
<title>E&#45;&#45;D</title>
<path fill="none" stroke="red" d="M142.33,-195.48C142.8,-194.14 143.28,-192.81 143.74,-191.5"/>
<text text-anchor="middle" x="149.54" y="-199.49" font-family="Times,serif" font-size="20.00">1</text>
</g>
<!-- D&#45;&#45;B -->
<g id="edge13" class="edge">
<title>D&#45;&#45;B</title>
<path fill="none" stroke="red" d="M139.12,-132.73C137.8,-129.15 136.49,-125.59 135.24,-122.19"/>
<text text-anchor="middle" x="143.68" y="-111.46" font-family="Times,serif" font-size="20.00">9</text>
</g>
<!-- D&#45;&#45;F -->
<g id="edge9" class="edge">
<title>D&#45;&#45;F</title>
<path fill="none" stroke="red" d="M171.99,-179.68C177.63,-182.99 183.75,-186.59 189.37,-189.89"/>
<text text-anchor="middle" x="174.18" y="-190.79" font-family="Times,serif" font-size="20.00">3</text>
</g>
<!-- D&#45;&#45;C -->
<g id="edge4" class="edge">
<title>D&#45;&#45;C</title>
<path fill="none" stroke="red" d="M119.13,-165.95C118.99,-165.94 118.85,-165.94 118.72,-165.93"/>
<text text-anchor="middle" x="112.42" y="-171.94" font-family="Times,serif" font-size="20.00">1</text>
</g>
<!-- D&#45;&#45;G -->
<g id="edge5" class="edge">
<title>D&#45;&#45;G</title>
<path fill="none" stroke="red" d="M175.34,-145.68C180.33,-140.88 185.42,-135.99 189.79,-131.78"/>
<text text-anchor="middle" x="189.06" y="-122.73" font-family="Times,serif" font-size="20.00">1</text>
</g>
<!-- C&#45;&#45;A -->
<g id="edge10" class="edge">
<title>C&#45;&#45;A</title>
<path fill="none" stroke="red" d="M64.11,-124.25C62.94,-121.79 61.78,-119.38 60.68,-117.07"/>
<text text-anchor="middle" x="55.9" y="-126.66" font-family="Times,serif" font-size="20.00">4</text>
</g>
<!-- C&#45;&#45;E -->
<g id="edge8" class="edge">
<title>C&#45;&#45;E</title>
<path fill="none" stroke="red" d="M93.81,-179.14C95.93,-182.14 98.24,-185.4 100.64,-188.79"/>
<text text-anchor="middle" x="90.72" y="-189.97" font-family="Times,serif" font-size="20.00">3</text>
</g>
<!-- G&#45;&#45;B -->
<g id="edge11" class="edge">
<title>G&#45;&#45;B</title>
<path fill="none" stroke="red" d="M176.13,-112.79C173.58,-112.08 170.94,-111.35 168.28,-110.61"/>
<text text-anchor="middle" x="165.71" y="-117.7" font-family="Times,serif" font-size="20.00">4</text>
</g>
<!-- G&#45;&#45;H -->
<g id="edge14" class="edge">
<title>G&#45;&#45;H</title>
<path fill="none" stroke="red" d="M193.34,-87.69C192.22,-83.56 191.09,-79.38 190.01,-75.35"/>
<text text-anchor="middle" x="204.67" y="-65.52" font-family="Times,serif" font-size="20.00">14</text>
</g>
</g>
</svg>
