<?xml version="1.0" encoding="UTF-8" standalone="no"?>
<!DOCTYPE svg PUBLIC "-//W3C//DTD SVG 1.1//EN"
 "http://www.w3.org/Graphics/SVG/1.1/DTD/svg11.dtd">
<!-- Generated by graphviz version 2.43.0 (0)
 -->
<!-- Title: %3 Pages: 1 -->
<svg width="799pt" height="645pt"
 viewBox="0.00 0.00 799.00 645.00" xmlns="http://www.w3.org/2000/svg" xmlns:xlink="http://www.w3.org/1999/xlink">
<g id="graph0" class="graph" transform="scale(1 1) rotate(0) translate(4 641)">
<title>%3</title>
<polygon fill="white" stroke="transparent" points="-4,4 -4,-641 795,-641 795,4 -4,4"/>
<!-- A -->
<g id="node1" class="node">
<title>A</title>
<image xlink:href="router.png" width="54px" height="36px" preserveAspectRatio="xMinYMin meet" x="737" y="-396"/>
<text text-anchor="middle" x="727.5" y="-402.6" font-family="Times,serif" font-weight="bold" font-size="23.00" fill="red">A</text>
</g>
<!-- B -->
<g id="node2" class="node">
<title>B</title>
<image xlink:href="router.png" width="54px" height="36px" preserveAspectRatio="xMinYMin meet" x="449" y="-540"/>
<text text-anchor="middle" x="439" y="-546.6" font-family="Times,serif" font-weight="bold" font-size="23.00" fill="red">B</text>
</g>
<!-- A&#45;&#45;B -->
<g id="edge1" class="edge">
<title>A&#45;&#45;B</title>
<path fill="none" stroke="blue" d="M736.91,-391.55C682.02,-418.99 558.24,-480.88 503.23,-508.38"/>
<text text-anchor="middle" x="612.07" y="-457.97" font-family="Times,serif" font-size="25.00">1</text>
</g>
<!-- C -->
<g id="node3" class="node">
<title>C</title>
<image xlink:href="router.png" width="54px" height="36px" preserveAspectRatio="xMinYMin meet" x="449" y="-252"/>
<text text-anchor="middle" x="439.5" y="-258.6" font-family="Times,serif" font-weight="bold" font-size="23.00" fill="red">C</text>
</g>
<!-- B&#45;&#45;C -->
<g id="edge7" class="edge">
<title>B&#45;&#45;C</title>
<path fill="none" stroke="blue" d="M476,-503.98C476,-452.26 476,-303.72 476,-252.01"/>
<text text-anchor="middle" x="468" y="-386" font-family="Times,serif" font-size="25.00">2</text>
</g>
<!-- H -->
<g id="node8" class="node">
<title>H</title>
<image xlink:href="router.png" width="54px" height="36px" preserveAspectRatio="xMinYMin meet" x="233" y="-612"/>
<text text-anchor="middle" x="222" y="-618.6" font-family="Times,serif" font-weight="bold" font-size="23.00" fill="red">H</text>
</g>
<!-- B&#45;&#45;H -->
<g id="edge6" class="edge">
<title>B&#45;&#45;H</title>
<path fill="none" stroke="blue" d="M448.64,-531.12C407.09,-544.97 328.55,-571.15 287.13,-584.96"/>
<text text-anchor="middle" x="359.89" y="-566.04" font-family="Times,serif" font-size="25.00">2</text>
</g>
<!-- C&#45;&#45;A -->
<g id="edge10" class="edge">
<title>C&#45;&#45;A</title>
<path fill="none" stroke="blue" d="M503.09,-247.55C557.98,-274.99 681.76,-336.88 736.77,-364.38"/>
<text text-anchor="middle" x="611.93" y="-313.97" font-family="Times,serif" font-size="25.00">4</text>
</g>
<!-- E -->
<g id="node5" class="node">
<title>E</title>
<image xlink:href="router.png" width="54px" height="36px" preserveAspectRatio="xMinYMin meet" x="233" y="-36"/>
<text text-anchor="middle" x="224" y="-42.6" font-family="Times,serif" font-weight="bold" font-size="23.00" fill="red">E</text>
</g>
<!-- C&#45;&#45;E -->
<g id="edge8" class="edge">
<title>C&#45;&#45;E</title>
<path fill="none" stroke="blue" d="M457.96,-215.96C417.3,-175.3 318.9,-76.9 278.15,-36.15"/>
<text text-anchor="middle" x="360.05" y="-134.05" font-family="Times,serif" font-size="25.00">3</text>
</g>
<!-- D -->
<g id="node4" class="node">
<title>D</title>
<image xlink:href="router.png" width="54px" height="36px" preserveAspectRatio="xMinYMin meet" x="233" y="-252"/>
<text text-anchor="middle" x="222.5" y="-258.6" font-family="Times,serif" font-weight="bold" font-size="23.00" fill="red">D</text>
</g>
<!-- D&#45;&#45;B -->
<g id="edge13" class="edge">
<title>D&#45;&#45;B</title>
<path fill="none" stroke="blue" d="M273.51,-252.02C312.3,-303.74 423.71,-452.28 462.49,-503.99"/>
<text text-anchor="middle" x="360" y="-386" font-family="Times,serif" font-size="25.00">9</text>
</g>
<!-- D&#45;&#45;C -->
<g id="edge4" class="edge">
<title>D&#45;&#45;C</title>
<path fill="none" stroke="blue" d="M287.36,-234C328.91,-234 407.45,-234 448.87,-234"/>
<text text-anchor="middle" x="360.11" y="-242" font-family="Times,serif" font-size="25.00">1</text>
</g>
<!-- F -->
<g id="node6" class="node">
<title>F</title>
<image xlink:href="router.png" width="54px" height="36px" preserveAspectRatio="xMinYMin meet" x="17" y="-108"/>
<text text-anchor="middle" x="8.5" y="-114.6" font-family="Times,serif" font-weight="bold" font-size="23.00" fill="red">F</text>
</g>
<!-- D&#45;&#45;F -->
<g id="edge9" class="edge">
<title>D&#45;&#45;F</title>
<path fill="none" stroke="blue" d="M232.64,-215.76C191.09,-188.06 112.55,-135.7 71.13,-108.09"/>
<text text-anchor="middle" x="143.89" y="-169.93" font-family="Times,serif" font-size="25.00">3</text>
</g>
<!-- G -->
<g id="node7" class="node">
<title>G</title>
<image xlink:href="router.png" width="54px" height="36px" preserveAspectRatio="xMinYMin meet" x="89" y="-396"/>
<text text-anchor="middle" x="79" y="-402.6" font-family="Times,serif" font-weight="bold" font-size="23.00" fill="red">G</text>
</g>
<!-- D&#45;&#45;G -->
<g id="edge5" class="edge">
<title>D&#45;&#45;G</title>
<path fill="none" stroke="blue" d="M241.76,-252.24C214.06,-279.94 161.7,-332.3 134.09,-359.91"/>
<text text-anchor="middle" x="179.93" y="-314.07" font-family="Times,serif" font-size="25.00">1</text>
</g>
<!-- E&#45;&#45;D -->
<g id="edge3" class="edge">
<title>E&#45;&#45;D</title>
<path fill="none" stroke="blue" d="M260,-36.04C260,-76.7 260,-175.1 260,-215.85"/>
<text text-anchor="middle" x="252" y="-133.95" font-family="Times,serif" font-size="25.00">1</text>
</g>
<!-- F&#45;&#45;E -->
<g id="edge2" class="edge">
<title>F&#45;&#45;E</title>
<path fill="none" stroke="blue" d="M71.36,-80.88C112.91,-67.03 191.45,-40.85 232.87,-27.04"/>
<text text-anchor="middle" x="144.11" y="-61.96" font-family="Times,serif" font-size="25.00">1</text>
</g>
<!-- F&#45;&#45;G -->
<g id="edge12" class="edge">
<title>F&#45;&#45;G</title>
<path fill="none" stroke="blue" d="M48.5,-108.02C61.43,-159.74 98.57,-308.28 111.5,-359.99"/>
<text text-anchor="middle" x="72" y="-242" font-family="Times,serif" font-size="25.00">6</text>
</g>
<!-- G&#45;&#45;B -->
<g id="edge11" class="edge">
<title>G&#45;&#45;B</title>
<path fill="none" stroke="blue" d="M143.06,-388.82C209.77,-415.51 381.58,-484.23 448.63,-511.05"/>
<text text-anchor="middle" x="287.84" y="-457.94" font-family="Times,serif" font-size="25.00">4</text>
</g>
<!-- G&#45;&#45;H -->
<g id="edge14" class="edge">
<title>G&#45;&#45;H</title>
<path fill="none" stroke="blue" d="M128.03,-396.04C155.14,-436.7 220.73,-535.1 247.9,-575.85"/>
<text text-anchor="middle" x="171.97" y="-493.95" font-family="Times,serif" font-size="25.00">14</text>
</g>
</g>
</svg>
